<?xml version="1.0" encoding="UTF-8" standalone="no"?>
<svg
   version="1.0"
   width="500pt"
   height="500pt"
   viewBox="0 0 500 500"
   preserveAspectRatio="xMidYMid"
   id="svg1"
   sodipodi:docname="EsLogo_1.svg"
   inkscape:version="1.3 (0e150ed, 2023-07-21)"
   xmlns:inkscape="http://www.inkscape.org/namespaces/inkscape"
   xmlns:sodipodi="http://sodipodi.sourceforge.net/DTD/sodipodi-0.dtd"
   xmlns="http://www.w3.org/2000/svg"
   xmlns:svg="http://www.w3.org/2000/svg">
  <defs
     id="defs1" />
  <sodipodi:namedview
     id="namedview1"
     pagecolor="#ffffff"
     bordercolor="#000000"
     borderopacity="0.25"
     inkscape:showpageshadow="2"
     inkscape:pageopacity="0.0"
     inkscape:pagecheckerboard="0"
     inkscape:deskcolor="#d1d1d1"
     inkscape:document-units="pt"
     inkscape:zoom="0.46226371"
     inkscape:cx="859.89878"
     inkscape:cy="380.73506"
     inkscape:window-width="2560"
     inkscape:window-height="1387"
     inkscape:window-x="1512"
     inkscape:window-y="25"
     inkscape:window-maximized="1"
     inkscape:current-layer="svg1" />
  <metadata
     id="metadata1">&#10;Created by potrace 1.15, written by Peter Selinger 2001-2017&#10;</metadata>
  <g
     transform="matrix(0.07301452,0.02852689,0.02301274,-0.05890107,-303.64854,280.13807)"
     fill="#000000"
     stroke="none"
     id="g1" />
  <circle
     style="fill:none;stroke:#007bff;stroke-width:30;stroke-dasharray:none;stroke-opacity:1"
     id="path5"
     cx="353.73901"
     cy="75.323502"
     r="153.46257"
     transform="rotate(21.340666)" />
  <rect
     style="fill:#007bff;fill-opacity:1;stroke:#007bff;stroke-width:22.9474;stroke-dasharray:none;stroke-opacity:1"
     id="rect7"
     width="33.315357"
     height="171.00395"
     x="340.36047"
     y="105.06192"
     transform="matrix(0.70848074,0.70573015,-0.70580844,0.70840275,0,0)" />
  <path
     id="path3056"
     d="m 244.4512,287.31325 c 5.78506,-2.6751 12.55582,-6.2817 15.04562,-8.01474 3.15981,-2.19913 5.05176,-2.63837 6.26357,-1.45412 2.31046,2.25849 7.1105,-0.31754 18.63717,-10.00215 8.18266,-6.87508 24.10212,-16.09384 27.7936,-16.09384 0.78647,0 2.38215,1.73901 3.54587,3.8644 2.32986,4.25546 8.18641,7.4322 13.82587,7.49997 2.00469,0.0241 6.43697,2.58095 9.84981,5.68218 6.73281,6.11835 7.34522,7.2121 4.03894,7.2121 -1.19108,0 -3.51896,0.96731 -5.1731,2.14964 -2.4223,1.7311 -2.65504,2.79363 -1.19593,5.45835 2.17919,3.98004 8.53476,6.07825 8.53476,2.81773 0,-3.32214 11.81479,-6.21312 19.28245,-4.71814 8.14604,1.63098 18.77107,1.89556 18.77284,0.46727 0.002,-2.6568 -10.11587,-7.79202 -15.3525,-7.79202 -10.69585,0 -16.23736,-2.03676 -23.83585,-8.76029 l -7.5762,-6.70444 3.31776,-6.41852 c 1.82467,-3.53012 4.5117,-10.47488 5.97082,-15.43288 2.13683,-7.25948 4.19402,-10.28405 10.5679,-15.5375 4.35308,-3.58769 10.93499,-8.02929 14.62669,-9.87019 9.05539,-4.51551 10.18999,-6.15928 12.8671,-18.64196 2.98971,-13.94129 6.29909,-18.90396 12.60722,-18.90396 2.89044,0 5.49871,1.14117 6.46896,2.83018 1.52441,2.65422 1.7009,2.63837 2.84124,-0.25486 1.23078,-3.12354 0.82949,-3.57329 -12.01665,-13.47002 -5.63527,-4.34148 -15.09681,-4.77992 -25.52683,-1.18294 -13.35045,4.60397 -18.31441,1.40892 -28.97651,-18.65005 -7.69687,-14.48047 -21.38376,-28.56213 -32.91948,-33.86669 -8.25281,-3.79502 -32.26426,-6.82753 -32.26426,-4.07466 0,0.71405 1.13063,2.51935 2.51231,4.01191 2.33295,2.51967 1.23828,2.78037 -15.30485,3.64688 -18.29124,0.9581 -53.88298,7.80982 -62.19381,11.97325 -3.79472,1.90076 -4.29815,2.77246 -2.69299,4.66301 1.08584,1.27883 4.02548,2.3251 6.53271,2.3251 2.50724,0 5.57328,1.19508 6.81355,2.65569 1.95417,2.30134 4.90594,2.5224 22.12502,1.6567 10.92904,-0.54949 23.59428,-1.41763 28.14437,-1.92922 7.31566,-0.82248 6.06811,-0.10803 -10.78101,6.17431 -24.28259,9.05383 -46.49871,19.24358 -49.33951,22.62847 -1.21579,1.44882 -1.73047,3.3938 -1.1432,4.32225 1.34638,2.12958 11.53968,2.18248 18.97293,0.0985 3.11877,-0.87428 5.91589,-1.34979 6.2157,-1.0567 0.30003,0.29308 -2.83838,2.62331 -6.97372,5.17841 -9.76863,6.03523 -9.41609,9.73337 0.8584,9.00819 4.0782,-0.2878 8.72425,-1.20831 10.32478,-2.04564 4.34867,-2.27481 3.52403,-0.14253 -2.05366,5.30924 -7.59473,7.42332 -6.26511,12.02341 2.17698,7.53183 1.9877,-1.05751 6.3035,-2.06828 9.5906,-2.24618 3.28709,-0.1779 7.56826,-0.8172 9.51382,-1.42072 2.99368,-0.92875 3.53705,-0.45166 3.53705,3.10558 0,4.81762 1.06996,5.36731 12.40933,6.37615 4.55009,0.40481 9.91313,1.22611 11.91759,1.82507 l 3.64471,1.08911 -3.45388,4.5663 c -5.3551,7.07965 -2.53437,10.52129 8.25326,10.0709 1.18864,-0.0496 3.85318,1.56349 5.92096,3.58478 3.22356,3.15071 3.45101,4.08775 1.59523,6.5686 -1.19063,1.59147 -3.42078,6.23156 -4.95623,10.31137 -1.53523,4.07983 -4.34228,9.14374 -6.2382,11.2531 -4.55781,5.07152 -35.479,26.50662 -48.53362,33.64513 -10.9811,6.0045 -12.88872,8.61053 -6.3024,8.61053 2.22133,0 4.49891,0.72776 5.06147,1.61724 1.46154,2.31169 2.15359,2.14899 13.82763,-3.24904 z"
     style="fill:#fac748;fill-opacity:1;stroke-width:1.6358" />
</svg>
